<svg xmlns="http://www.w3.org/2000/svg" viewBox="0 0 426.67 344.36"><defs><style>.cls-1{fill:#9acaab;}</style></defs><title>ico7</title><g id="Camada_2" data-name="Camada 2"><g id="Camada_1-2" data-name="Camada 1"><path class="cls-1" d="M21.33,193.51h332.5L239.4,307.94a21.33,21.33,0,0,0,30.17,30.17L420.42,187.26a21.25,21.25,0,0,0,2.65-3.25c.36-.53.61-1.12.92-1.68a12.76,12.76,0,0,0,1.73-4.2c.17-.59.4-1.16.53-1.76a22,22,0,0,0,.42-4.19s0,0,0-.05a21.26,21.26,0,0,0-.41-4.13c-.13-.64-.37-1.23-.56-1.86A20,20,0,0,0,425,164a21.12,21.12,0,0,0-1.1-2.11c-.29-.52-.52-1-.85-1.55a21.62,21.62,0,0,0-2.67-3.28L269.57,6.25A21.33,21.33,0,1,0,239.4,36.42L353.83,150.85H21.33a21.33,21.33,0,0,0,0,42.66Z"/></g></g></svg>