<?xml version="1.0" encoding="utf-8"?>
<!-- Generator: Adobe Illustrator 23.0.4, SVG Export Plug-In . SVG Version: 6.00 Build 0)  -->
<svg version="1.1" id="Camada_1" xmlns="http://www.w3.org/2000/svg" xmlns:xlink="http://www.w3.org/1999/xlink" x="0px" y="0px"
	 viewBox="0 0 426.7 344.4" style="enable-background:new 0 0 426.7 344.4;" xml:space="preserve">
<style type="text/css">
	.st0{fill:#9ACAAB;}
</style>
<title>ico7</title>
<g>
	<g id="Camada_1-2">
		<path class="st0" d="M92.6,323L327.8,87.9v161.8c0,11.8,9.6,21.3,21.3,21.3c11.8,0,21.3-9.6,21.3-21.3l0-213.3
			c0-1.4-0.1-2.8-0.4-4.2c-0.1-0.6-0.4-1.2-0.5-1.8c-0.3-1.5-0.9-2.9-1.7-4.2c-0.3-0.5-0.5-1.1-0.9-1.6c-0.8-1.2-1.7-2.3-2.7-3.3
			c0,0,0,0,0,0c-1-1-2.1-1.9-3.2-2.6c-0.5-0.4-1.1-0.6-1.7-0.9c-0.6-0.4-1.3-0.7-2-1c-0.7-0.3-1.5-0.5-2.3-0.7
			c-0.6-0.2-1.1-0.3-1.7-0.5c-1.4-0.3-2.8-0.4-4.2-0.4l-213.3,0c-11.8,0-21.3,9.6-21.3,21.3c0,11.8,9.6,21.3,21.3,21.3l161.8,0
			L62.5,292.9c-8.3,8.3-8.3,21.8,0,30.2C70.8,331.4,84.3,331.4,92.6,323L92.6,323z"/>
	</g>
</g>
</svg>
