<svg xmlns="http://www.w3.org/2000/svg" xmlns:xlink="http://www.w3.org/1999/xlink" viewBox="0 0 276.84 192.94"><defs><style>.cls-1,.cls-2,.cls-3,.cls-4,.cls-5,.cls-6,.cls-7,.cls-8,.cls-9{fill:none;stroke-miterlimit:10;stroke-width:10px;}.cls-1{stroke:url(#linear-gradient);}.cls-2{stroke:url(#linear-gradient-2);}.cls-3{stroke:url(#linear-gradient-3);}.cls-4{stroke:url(#linear-gradient-4);}.cls-5{stroke:url(#linear-gradient-5);}.cls-6{stroke:url(#linear-gradient-6);}.cls-7{stroke:url(#linear-gradient-7);}.cls-8{stroke:url(#linear-gradient-8);}.cls-9{stroke:url(#linear-gradient-9);}</style><linearGradient id="linear-gradient" x1="107.39" y1="31.79" x2="276.84" y2="31.79" gradientUnits="userSpaceOnUse"><stop offset="0" stop-color="#c4e1bc"/><stop offset="0.35" stop-color="#b4dcc2"/><stop offset="1" stop-color="#8dd0d0"/></linearGradient><linearGradient id="linear-gradient-2" x1="0" y1="31.79" x2="53.5" y2="31.79" xlink:href="#linear-gradient"/><linearGradient id="linear-gradient-3" x1="48.58" y1="31.23" x2="111.05" y2="31.23" xlink:href="#linear-gradient"/><linearGradient id="linear-gradient-4" x1="224.61" y1="96.47" x2="276.84" y2="96.47" xlink:href="#linear-gradient"/><linearGradient id="linear-gradient-5" x1="0" y1="96.47" x2="172.39" y2="96.47" xlink:href="#linear-gradient"/><linearGradient id="linear-gradient-6" x1="165.79" y1="96.47" x2="228.26" y2="96.47" xlink:href="#linear-gradient"/><linearGradient id="linear-gradient-7" x1="145.72" y1="161.7" x2="276.84" y2="161.7" xlink:href="#linear-gradient"/><linearGradient id="linear-gradient-8" x1="0" y1="161.7" x2="92.94" y2="161.7" xlink:href="#linear-gradient"/><linearGradient id="linear-gradient-9" x1="86.53" y1="161.7" x2="149" y2="161.7" xlink:href="#linear-gradient"/></defs><title>ico 8</title><g id="Camada_2" data-name="Camada 2"><g id="Layer_1" data-name="Layer 1"><line class="cls-1" x1="107.39" y1="31.79" x2="276.84" y2="31.79"/><line class="cls-2" y1="31.79" x2="53.5" y2="31.79"/><circle class="cls-3" cx="79.81" cy="31.23" r="26.23"/><line class="cls-4" x1="224.61" y1="96.47" x2="276.84" y2="96.47"/><line class="cls-5" y1="96.47" x2="172.39" y2="96.47"/><circle class="cls-6" cx="197.02" cy="96.47" r="26.23"/><line class="cls-7" x1="145.72" y1="161.7" x2="276.84" y2="161.7"/><line class="cls-8" y1="161.7" x2="92.94" y2="161.7"/><circle class="cls-9" cx="117.77" cy="161.7" r="26.23"/></g></g></svg>