<svg id="Layer_1" data-name="Layer 1" xmlns="http://www.w3.org/2000/svg" xmlns:xlink="http://www.w3.org/1999/xlink" viewBox="0 0 257 257"><defs><style>.cls-1{fill:url(#linear-gradient);}.cls-2{fill:url(#linear-gradient-2);}.cls-3{fill:none;stroke-miterlimit:10;stroke-width:9px;stroke:url(#linear-gradient-3);}</style><linearGradient id="linear-gradient" x1="167.31" y1="849.45" x2="285.51" y2="849.45" gradientUnits="userSpaceOnUse"><stop offset="0" stop-color="#c4e1bc"/><stop offset="0.35" stop-color="#b4dcc2"/><stop offset="1" stop-color="#8dd0d0"/></linearGradient><linearGradient id="linear-gradient-2" x1="135.34" y1="929.63" x2="318.51" y2="929.63" xlink:href="#linear-gradient"/><linearGradient id="linear-gradient-3" x1="0" y1="128.5" x2="257" y2="128.5" xlink:href="#linear-gradient"/></defs><title>ico1</title><path class="cls-1" d="M226.41,799.17a50.29,50.29,0,1,0,50.26,50.3A50.31,50.31,0,0,0,226.41,799.17Zm0,109.36a59.08,59.08,0,1,1,59.1-59.06A59.16,59.16,0,0,1,226.41,908.53Z" transform="translate(-97.91 -740.58)"/><path class="cls-2" d="M142.24,956.26a98.06,98.06,0,0,1,170.14,3.27l6.13-7.22A107.73,107.73,0,0,0,302,931.08a107.14,107.14,0,0,0-166.68,19.47Z" transform="translate(-97.91 -740.58)"/><circle class="cls-3" cx="128.5" cy="128.5" r="124"/></svg>